<?xml version="1.0" standalone="no"?>
<!DOCTYPE svg PUBLIC "-//W3C//DTD SVG 20010904//EN"
 "http://www.w3.org/TR/2001/REC-SVG-20010904/DTD/svg10.dtd">
<svg version="1.0" xmlns="http://www.w3.org/2000/svg"
 width="268.000000pt" height="268.000000pt" viewBox="0 0 268.000000 268.000000"
 preserveAspectRatio="xMidYMid meet">
<metadata>
Created by potrace 1.14, written by Peter Selinger 2001-2017
</metadata>
<g transform="translate(0.000000,268.000000) scale(0.100000,-0.100000)"
fill="#000000" stroke="none">
<path d="M928 2447 c-23 -5 -49 -9 -55 -9 -7 -1 -13 -6 -13 -11 0 -6 -3 -8 -6
-4 -3 3 -15 -2 -27 -11 -55 -45 -87 -92 -132 -198 -27 -63 -56 -121 -64 -127
-9 -8 -78 -14 -200 -17 -180 -5 -188 -6 -245 -34 -62 -30 -110 -85 -133 -153
-10 -28 -12 -190 -10 -707 2 -369 6 -678 9 -686 3 -8 9 -25 13 -37 4 -13 10
-23 14 -23 4 0 15 -13 24 -30 10 -16 25 -30 34 -30 12 0 13 -3 4 -14 -9 -11
-9 -16 0 -22 8 -4 9 -3 5 4 -10 16 5 15 43 -4 23 -11 31 -21 27 -33 -5 -14 -4
-14 7 1 8 10 17 15 20 11 4 -3 67 -7 140 -8 73 -1 139 -5 145 -9 7 -4 18 -4
25 1 17 11 79 11 94 0 7 -5 18 -5 25 -1 20 13 98 13 91 0 -4 -6 1 -5 10 3 12
9 17 10 17 2 0 -7 5 -9 12 -5 17 11 281 12 295 2 6 -5 13 -5 16 -1 7 10 358
10 375 -1 7 -4 18 -4 25 1 15 11 77 11 95 0 6 -5 18 -5 24 -1 16 10 99 13 93
4 -2 -4 2 -7 10 -7 8 0 12 3 11 6 -6 9 297 7 311 -2 6 -4 14 -4 16 0 3 5 78 8
166 7 107 0 161 3 161 10 0 6 5 4 10 -4 5 -8 10 -10 10 -3 0 6 8 9 19 6 10 -2
24 1 32 9 8 7 21 14 29 16 8 2 17 8 18 13 2 5 8 7 13 3 5 -3 12 2 15 10 3 9
10 13 15 10 5 -3 9 0 9 6 0 6 12 30 28 53 15 23 29 49 32 57 3 8 6 315 8 681
2 683 0 726 -37 771 -6 7 -22 27 -36 44 -13 17 -48 42 -77 55 -48 22 -69 24
-238 27 -165 3 -187 6 -202 22 -10 11 -18 21 -18 24 0 3 -13 34 -29 68 -15 35
-38 84 -49 109 -27 59 -79 110 -139 139 -47 22 -55 23 -445 24 -218 1 -416 -3
-440 -7z m552 -636 c25 -7 51 -12 58 -13 6 -1 12 -5 12 -10 0 -4 3 -8 8 -7 15
2 52 -14 52 -23 0 -5 4 -7 9 -3 5 3 16 -2 24 -10 9 -8 20 -15 26 -15 6 0 11
-4 11 -10 0 -5 5 -10 12 -10 6 0 36 -26 67 -58 72 -75 87 -95 96 -121 3 -12
11 -21 16 -21 5 0 8 -3 7 -7 -1 -5 3 -18 10 -30 7 -13 9 -23 5 -23 -4 0 -2 -5
5 -12 7 -7 12 -22 12 -33 0 -12 3 -25 7 -29 18 -17 25 -196 11 -258 -5 -24
-11 -50 -13 -58 -41 -179 -199 -343 -396 -411 -83 -28 -266 -31 -344 -4 -110
38 -211 98 -259 153 -6 7 -21 23 -33 34 -12 12 -20 24 -18 28 3 5 -1 10 -8 13
-20 8 -75 127 -96 209 -14 55 -19 102 -17 165 3 78 20 169 36 183 3 3 6 12 8
20 7 38 38 90 51 85 11 -4 11 -2 2 9 -9 11 4 29 69 96 51 52 86 80 95 76 8 -3
17 0 21 6 4 7 3 8 -4 4 -7 -4 -12 -2 -12 3 0 6 5 11 10 11 6 0 22 8 37 17 14
10 35 19 47 20 11 2 23 7 26 11 3 4 12 7 20 7 8 0 18 4 23 10 4 6 10 5 17 -5
7 -11 10 -11 10 -2 0 7 10 16 22 21 30 11 203 5 258 -8z m907 -78 c2 -28 -2
-43 -10 -43 -8 0 -8 -3 -1 -8 5 -4 10 -26 10 -48 l0 -41 -90 1 -91 1 0 87 -1
87 31 3 c16 2 57 3 90 3 l61 0 1 -42z"/>
<path d="M1216 1793 c-6 -14 -5 -15 5 -6 7 7 10 15 7 18 -3 3 -9 -2 -12 -12z"/>
<path d="M1256 1793 c-6 -14 -5 -15 5 -6 7 7 10 15 7 18 -3 3 -9 -2 -12 -12z"/>
<path d="M1286 1798 c3 -5 10 -6 15 -3 13 9 11 12 -6 12 -8 0 -12 -4 -9 -9z"/>
<path d="M1495 1780 c3 -5 8 -10 11 -10 2 0 4 5 4 10 0 6 -5 10 -11 10 -5 0
-7 -4 -4 -10z"/>
<path d="M995 1680 c3 -5 8 -10 11 -10 2 0 4 5 4 10 0 6 -5 10 -11 10 -5 0 -7
-4 -4 -10z"/>
<path d="M1336 1671 c-10 -4 -32 -6 -50 -5 -17 1 -35 -1 -41 -6 -5 -4 -25 -11
-43 -15 -49 -10 -115 -50 -164 -99 -47 -48 -73 -78 -73 -86 -1 -3 -8 -19 -18
-36 -9 -17 -13 -34 -10 -38 4 -3 1 -6 -6 -6 -7 0 -10 -4 -6 -9 3 -5 0 -13 -6
-16 -5 -4 -8 -13 -5 -21 3 -7 1 -16 -4 -19 -6 -4 -10 -11 -10 -16 0 -6 6 -7
13 -3 9 6 9 4 1 -7 -14 -18 -24 -59 -15 -59 11 0 8 -44 -4 -52 -6 -5 -5 -8 3
-8 7 0 12 -12 12 -28 0 -16 3 -32 7 -36 4 -3 8 -16 10 -28 2 -12 15 -42 28
-66 14 -24 22 -49 18 -55 -3 -5 -2 -7 4 -4 12 8 86 -69 79 -82 -4 -5 -1 -13 5
-17 8 -4 9 -3 5 4 -12 19 13 14 44 -10 16 -11 26 -26 23 -31 -3 -6 -2 -7 4 -4
6 4 40 -2 76 -12 36 -11 68 -17 71 -13 3 3 6 0 6 -7 0 -7 4 -10 8 -7 5 3 30 6
58 7 27 1 59 6 71 10 16 6 25 4 33 -9 7 -11 10 -12 7 -2 -2 9 17 24 55 42 32
15 70 39 85 53 16 14 33 23 40 21 7 -3 15 0 19 6 4 7 3 8 -4 4 -25 -15 -5 18
41 66 9 10 14 18 10 18 -5 0 1 7 11 15 11 8 17 15 13 15 -3 0 1 16 9 35 8 19
11 35 7 35 -4 0 -2 5 5 12 7 7 12 25 12 41 0 18 4 26 11 21 8 -4 8 0 0 15 -9
15 -9 27 -1 41 6 11 7 20 3 20 -4 0 -8 15 -9 33 -1 29 -9 78 -15 85 -1 1 -2 5
-3 10 -5 26 -58 121 -79 143 -14 15 -23 30 -20 33 4 3 0 6 -9 6 -8 0 -23 9
-34 21 -18 20 -134 85 -134 75 0 -3 -15 1 -34 9 -18 8 -36 12 -38 9 -3 -2 -16
-1 -29 4 -13 5 -32 6 -43 3z m-36 -183 c0 9 14 12 46 11 48 -3 79 -22 68 -41
-4 -7 -2 -8 4 -4 6 4 8 14 5 22 -5 13 2 12 34 -5 45 -22 125 -99 118 -111 -3
-5 -1 -10 5 -12 5 -1 11 -12 13 -23 1 -11 5 -24 9 -30 11 -19 6 -137 -8 -163
-8 -15 -14 -31 -14 -37 -1 -19 -78 -94 -120 -116 -60 -32 -168 -32 -240 -2
-50 22 -150 139 -133 157 4 3 2 6 -4 6 -15 0 -10 173 5 178 7 2 10 7 7 12 -9
14 33 75 73 106 49 39 92 58 92 41 0 -6 5 -4 11 7 9 15 13 16 20 5 7 -11 9
-11 9 -1z"/>
<path d="M1135 1381 c-3 -5 -2 -12 3 -15 5 -3 9 1 9 9 0 17 -3 19 -12 6z"/>
<path d="M1096 813 c-6 -14 -5 -15 5 -6 7 7 10 15 7 18 -3 3 -9 -2 -12 -12z"/>
<path d="M1570 825 c0 -7 30 -13 34 -7 3 4 -4 9 -15 9 -10 1 -19 0 -19 -2z"/>
<path d="M1246 758 c3 -5 10 -6 15 -3 13 9 11 12 -6 12 -8 0 -12 -4 -9 -9z"/>
<path d="M2255 1740 c-3 -5 -1 -10 4 -10 6 0 11 5 11 10 0 6 -2 10 -4 10 -3 0
-8 -4 -11 -10z"/>
<path d="M2330 1746 c0 -2 7 -7 16 -10 8 -3 12 -2 9 4 -6 10 -25 14 -25 6z"/>
<path d="M70 396 c0 -2 8 -10 18 -17 15 -13 16 -12 3 4 -13 16 -21 21 -21 13z"/>
<path d="M2493 295 c0 -8 4 -12 9 -9 5 3 6 10 3 15 -9 13 -12 11 -12 -6z"/>
<path d="M975 280 c3 -5 8 -10 11 -10 2 0 4 5 4 10 0 6 -5 10 -11 10 -5 0 -7
-4 -4 -10z"/>
<path d="M1135 280 c3 -5 8 -10 11 -10 2 0 4 5 4 10 0 6 -5 10 -11 10 -5 0 -7
-4 -4 -10z"/>
<path d="M1935 280 c3 -5 8 -10 11 -10 2 0 4 5 4 10 0 6 -5 10 -11 10 -5 0 -7
-4 -4 -10z"/>
<path d="M2095 280 c3 -5 8 -10 11 -10 2 0 4 5 4 10 0 6 -5 10 -11 10 -5 0 -7
-4 -4 -10z"/>
</g>
</svg>
